<svg width="842" height="311" viewBox="0 0 842 311" fill="none" xmlns="http://www.w3.org/2000/svg">
<g clip-path="url(#clip0_139_182)">
<path d="M327.575 148.162H313.822V148.587C319.375 148.587 320.666 149.436 320.666 153.715V204.183C320.666 208.462 319.375 209.312 313.822 209.312V209.736H334.353V209.312C328.799 209.312 327.509 208.462 327.509 204.183V178.949H341.196C345.475 178.949 346.325 180.239 346.325 185.793H346.749V170.979H346.325C346.325 176.516 345.475 177.806 341.261 177.822H327.509V149.305H346.014C350.293 149.305 351.143 150.579 351.143 155.724H351.567V148.162H327.575Z" fill="#1D1D1B"/>
<path d="M415.56 208.985C413.355 208.397 411.33 205.278 411.33 205.278L395.781 183.441L394.703 181.971C393.592 180.582 392.09 179.7 389.999 179.227C389.999 179.227 391.142 178.884 391.387 178.802C399.031 176.483 403.996 171.093 403.996 164.527C403.996 159.317 401.481 154.973 396.728 151.984C392.874 149.55 387.762 148.162 382.715 148.162H373.421H359.734V148.587C365.288 148.587 366.578 149.436 366.578 153.715V204.183C366.578 208.462 365.288 209.312 359.734 209.312V209.736H380.265V209.312C374.712 209.312 373.421 208.462 373.421 204.183V180.141H382.176C382.568 180.141 382.927 180.158 383.27 180.19C384.021 180.288 384.642 180.419 385.148 180.631C385.54 180.795 386.373 181.595 386.765 182.134C390.211 186.92 406.561 209.753 406.561 209.753H419.611V209.328C419.611 209.328 417.21 209.442 415.544 209.001L415.56 208.985ZM373.421 178.949V149.24H382.796C390.816 149.24 397.316 155.659 397.316 163.564V164.625C397.316 172.498 390.865 178.884 382.894 178.949C382.829 178.949 381.914 178.949 381.914 178.949H373.421Z" fill="#1D1D1B"/>
<path d="M473.819 204.183L455.15 148.162H443.178V148.587C447.98 148.587 449.466 149.844 448.764 152L440.663 177.806L432.382 204.183C430.978 208.626 429.491 209.312 423.922 209.312V209.736H438.932V209.312C433.379 209.312 432.529 207.923 433.705 204.183L441.594 178.949H452.847C456.653 178.949 458.923 180.011 461.553 187.899L463.251 193.012L467.188 204.804C468.086 207.629 467.188 209.312 461.994 209.312V209.736H482.524V209.312C476.971 209.312 475.109 208.021 473.835 204.183H473.819ZM441.937 177.806L448.78 155.887L449.793 152.653L456.359 172.334C457.437 175.895 456.506 177.806 452.831 177.806H441.937Z" fill="#1D1D1B"/>
<path d="M546.973 148.162H532.862V148.587C537.876 148.587 539.395 149.322 539.656 152.604V199.316L499.755 148.162H487.783V148.587C492.993 148.587 494.447 149.338 494.61 152.588V204.951C494.447 208.56 492.993 209.312 487.783 209.312V209.736H502.564V209.312C497.42 209.312 495.95 208.364 495.754 204.869V152.768L540.391 209.753H540.816V153.731C540.816 149.452 542.106 148.603 547.659 148.603V148.178H546.99L546.973 148.162Z" fill="#1D1D1B"/>
<path d="M587.708 208.577H563.307L563.683 207.956L596.904 148.162H558.799V155.74H559.224C559.224 150.612 560.073 149.322 564.352 149.322H589.358L589.57 149.305L581.894 162.894L555.859 209.753H593.278V202.174H592.853C592.853 207.303 592.004 208.593 587.725 208.593L587.708 208.577Z" fill="#1D1D1B"/>
<path d="M619.752 148.162H606.049V148.587C611.602 148.587 612.892 149.436 612.892 153.715V204.183C612.892 208.462 611.602 209.312 606.049 209.312V209.736H642.34V202.158H641.916C641.916 207.286 641.066 208.577 636.787 208.577H619.736V179.651H632.116C636.199 179.7 637.032 181.023 637.032 186.495H637.457V171.436H637.032C637.032 176.532 636.314 178.035 632.9 178.247H619.736V149.518H636.787C641.066 149.518 641.916 150.791 641.916 155.936H642.34V148.178H619.752V148.162Z" fill="#1D1D1B"/>
<path d="M679.204 148.162H651.781V155.92H652.206C652.206 150.791 653.055 149.501 657.334 149.501H672.295V204.183C672.295 208.462 671.021 209.312 665.452 209.312V209.736H685.982V209.312C680.429 209.312 679.139 208.462 679.139 204.183V149.501H694.1C698.379 149.501 699.228 150.775 699.228 155.92H699.653V148.162H679.171H679.204Z" fill="#1D1D1B"/>
<path d="M736.548 148.162H709.125V155.92H709.55C709.55 150.791 710.399 149.501 714.678 149.501H729.639V204.183C729.639 208.462 728.365 209.312 722.796 209.312V209.736H743.326V209.312C737.773 209.312 736.483 208.462 736.483 204.183V149.501H751.443C755.723 149.501 756.572 150.775 756.572 155.92H756.997V148.162H736.515H736.548Z" fill="#1D1D1B"/>
<path d="M780.156 153.715V204.183C780.156 208.462 781.446 209.312 786.999 209.312V209.736H766.469V209.312C772.022 209.312 773.312 208.462 773.312 204.183V153.715C773.312 149.436 772.022 148.587 766.469 148.587V148.162H786.999V148.587C781.446 148.587 780.156 149.436 780.156 153.715Z" fill="#1D1D1B"/>
<path d="M313.822 247.526L322.43 226.665H325.19L333.738 247.526H331.245L328.633 240.97H318.838L316.197 247.526H313.822ZM319.64 239.003H327.832L323.736 228.781L319.64 239.003Z" fill="#1D1D1B"/>
<path d="M369.258 247.526V232.595H371.454V234.711C371.909 233.937 372.483 233.341 373.175 232.923C373.888 232.486 374.699 232.268 375.609 232.268C376.124 232.268 376.589 232.337 377.004 232.476V234.503C376.747 234.403 376.49 234.334 376.233 234.294C375.975 234.254 375.718 234.235 375.461 234.235C374.551 234.235 373.749 234.503 373.057 235.039C372.384 235.556 371.85 236.311 371.454 237.304V247.526H369.258Z" fill="#1D1D1B"/>
<path d="M413.058 247.526V226.665L415.254 226.158V234.175C416.52 232.963 418.113 232.357 420.033 232.357C421.438 232.357 422.704 232.705 423.832 233.4C424.96 234.076 425.85 234.99 426.503 236.142C427.176 237.294 427.512 238.596 427.512 240.046C427.512 241.496 427.176 242.807 426.503 243.98C425.85 245.132 424.96 246.056 423.832 246.751C422.704 247.427 421.428 247.764 420.003 247.764C419.132 247.764 418.282 247.615 417.45 247.317C416.639 247.019 415.897 246.592 415.224 246.036V247.526H413.058ZM419.825 245.827C420.874 245.827 421.814 245.579 422.645 245.082C423.476 244.566 424.129 243.88 424.604 243.026C425.098 242.152 425.346 241.168 425.346 240.076C425.346 238.983 425.098 237.999 424.604 237.125C424.129 236.251 423.476 235.566 422.645 235.069C421.814 234.552 420.874 234.294 419.825 234.294C418.895 234.294 418.024 234.483 417.213 234.86C416.422 235.218 415.769 235.725 415.254 236.38V243.771C415.769 244.407 416.431 244.913 417.243 245.291C418.054 245.649 418.915 245.827 419.825 245.827Z" fill="#1D1D1B"/>
<path d="M464.104 247.526V232.595H466.301V247.526H464.104ZM465.202 229.735C464.807 229.735 464.46 229.586 464.164 229.288C463.867 228.99 463.718 228.642 463.718 228.244C463.718 227.827 463.867 227.48 464.164 227.201C464.46 226.903 464.807 226.754 465.202 226.754C465.618 226.754 465.964 226.903 466.241 227.201C466.538 227.48 466.686 227.827 466.686 228.244C466.686 228.642 466.538 228.99 466.241 229.288C465.964 229.586 465.618 229.735 465.202 229.735Z" fill="#1D1D1B"/>
<path d="M509.433 247.824C508.146 247.824 507.157 247.516 506.465 246.9C505.772 246.284 505.426 245.39 505.426 244.218V234.473H502.22V232.595H505.426V228.811L507.592 228.244V232.595H512.074V234.473H507.592V243.652C507.592 244.447 507.771 245.023 508.127 245.38C508.483 245.718 509.067 245.887 509.878 245.887C510.293 245.887 510.659 245.857 510.976 245.798C511.312 245.738 511.669 245.639 512.045 245.5V247.437C511.669 247.576 511.243 247.675 510.768 247.735C510.313 247.794 509.868 247.824 509.433 247.824Z" fill="#1D1D1B"/>
<path d="M547.965 247.526V232.595H550.162V234.711C550.617 233.937 551.191 233.341 551.883 232.923C552.596 232.486 553.407 232.268 554.317 232.268C554.832 232.268 555.297 232.337 555.712 232.476V234.503C555.455 234.403 555.198 234.334 554.94 234.294C554.683 234.254 554.426 234.235 554.169 234.235C553.258 234.235 552.457 234.503 551.765 235.039C551.092 235.556 550.558 236.311 550.162 237.304V247.526H547.965Z" fill="#1D1D1B"/>
<path d="M595.701 247.794C594.613 247.794 593.654 247.605 592.822 247.228C592.011 246.851 591.368 246.324 590.893 245.649C590.438 244.973 590.211 244.188 590.211 243.294C590.211 241.884 590.745 240.771 591.813 239.956C592.882 239.142 594.326 238.735 596.147 238.735C597.749 238.735 599.204 239.072 600.51 239.748V237.781C600.51 236.589 600.173 235.695 599.501 235.099C598.828 234.483 597.848 234.175 596.562 234.175C595.83 234.175 595.088 234.284 594.336 234.503C593.604 234.701 592.793 235.029 591.902 235.486L591.071 233.788C592.14 233.271 593.129 232.893 594.039 232.655C594.95 232.417 595.86 232.297 596.77 232.297C598.65 232.297 600.094 232.744 601.103 233.639C602.132 234.533 602.647 235.814 602.647 237.483V247.526H600.51V246.066C599.837 246.642 599.095 247.079 598.284 247.377C597.492 247.655 596.631 247.794 595.701 247.794ZM592.318 243.235C592.318 244.069 592.664 244.754 593.357 245.291C594.069 245.807 594.979 246.066 596.087 246.066C596.978 246.066 597.789 245.927 598.521 245.649C599.253 245.37 599.916 244.933 600.51 244.337V241.536C599.896 241.119 599.243 240.821 598.551 240.642C597.858 240.443 597.077 240.344 596.206 240.344C595.019 240.344 594.069 240.612 593.357 241.149C592.664 241.665 592.318 242.36 592.318 243.235Z" fill="#1D1D1B"/>
<path d="M645.268 247.824C643.982 247.824 642.992 247.516 642.3 246.9C641.607 246.284 641.261 245.39 641.261 244.218V234.473H638.055V232.595H641.261V228.811L643.428 228.244V232.595H647.909V234.473H643.428V243.652C643.428 244.447 643.606 245.023 643.962 245.38C644.318 245.718 644.902 245.887 645.713 245.887C646.129 245.887 646.495 245.857 646.811 245.798C647.148 245.738 647.504 245.639 647.88 245.5V247.437C647.504 247.576 647.078 247.675 646.603 247.735C646.148 247.794 645.703 247.824 645.268 247.824Z" fill="#1D1D1B"/>
<path d="M683.801 247.526V232.595H685.997V247.526H683.801ZM684.899 229.735C684.503 229.735 684.157 229.586 683.86 229.288C683.563 228.99 683.415 228.642 683.415 228.244C683.415 227.827 683.563 227.48 683.86 227.201C684.157 226.903 684.503 226.754 684.899 226.754C685.314 226.754 685.661 226.903 685.938 227.201C686.234 227.48 686.383 227.827 686.383 228.244C686.383 228.642 686.234 228.99 685.938 229.288C685.661 229.586 685.314 229.735 684.899 229.735Z" fill="#1D1D1B"/>
<path d="M730.198 247.824C728.793 247.824 727.506 247.486 726.339 246.811C725.191 246.115 724.281 245.182 723.608 244.009C722.936 242.837 722.599 241.526 722.599 240.076C722.599 238.625 722.936 237.314 723.608 236.142C724.281 234.97 725.191 234.046 726.339 233.37C727.506 232.675 728.793 232.327 730.198 232.327C731.622 232.327 732.908 232.675 734.056 233.37C735.204 234.046 736.114 234.97 736.787 236.142C737.459 237.314 737.796 238.625 737.796 240.076C737.796 241.526 737.459 242.837 736.787 244.009C736.114 245.182 735.204 246.115 734.056 246.811C732.908 247.486 731.622 247.824 730.198 247.824ZM730.198 245.857C731.207 245.857 732.117 245.599 732.928 245.082C733.759 244.566 734.412 243.87 734.887 242.996C735.382 242.122 735.629 241.149 735.629 240.076C735.629 238.983 735.382 238.009 734.887 237.155C734.412 236.281 733.759 235.586 732.928 235.069C732.117 234.552 731.207 234.294 730.198 234.294C729.188 234.294 728.268 234.552 727.437 235.069C726.626 235.586 725.973 236.281 725.478 237.155C725.003 238.009 724.766 238.983 724.766 240.076C724.766 241.149 725.003 242.122 725.478 242.996C725.973 243.87 726.626 244.566 727.437 245.082C728.268 245.599 729.188 245.857 730.198 245.857Z" fill="#1D1D1B"/>
<path d="M774.386 247.526V232.595H776.583V234.354C777.75 232.983 779.313 232.297 781.272 232.297C782.4 232.297 783.39 232.546 784.24 233.043C785.111 233.519 785.784 234.195 786.259 235.069C786.753 235.923 787.001 236.927 787.001 238.079V247.526H784.834V238.526C784.834 237.195 784.458 236.152 783.706 235.397C782.974 234.622 781.965 234.235 780.679 234.235C779.788 234.235 778.997 234.433 778.304 234.831C777.612 235.228 777.038 235.794 776.583 236.529V247.526H774.386Z" fill="#1D1D1B"/>
<path d="M283.489 246.957H276.124V246.135C261.048 246.135 255.982 242.633 252.521 232.212V232.253L203.667 81.9854L203.091 80.1319H63.3672V81.2852C78.4435 81.2852 81.9443 83.5919 81.9443 95.208V232.212C81.9443 243.828 78.4435 246.135 63.3672 246.135V246.957H56V42H283.489V246.957ZM195.594 163.71C205.933 163.71 212.112 166.552 219.238 187.972L223.852 201.854L234.521 233.9C236.992 241.562 234.52 246.135 220.392 246.135V246.957H157.82V246.135C142.744 246.135 140.438 242.345 143.609 232.212L165.029 163.71H195.594ZM139.984 232.253C136.277 244.116 132.24 246.093 117.823 246.176C103.818 246.052 100.481 243.54 100.481 232.253V163.751H161.486L139.984 232.253ZM205.109 145.833C208.034 155.513 205.521 160.703 195.553 160.703V160.662H165.977L184.555 101.181L187.314 92.4073L205.109 145.833ZM180.23 83.2618C184.843 83.3856 185.46 87.0937 184.431 90.8008C184.307 91.2125 183.368 94.1511 183.359 94.1778L162.476 160.662H100.522V83.2618H164.782C164.831 83.2615 173.575 83.2207 180.23 83.2618Z" fill="#1D1D1B"/>
</g>
<defs>
<clipPath id="clip0_139_182">
<rect width="311" height="842" fill="white" transform="translate(842 3.6805e-05) rotate(90)"/>
</clipPath>
</defs>
</svg>
